<mxfile host="app.diagrams.net" modified="2023-01-25T18:37:05.978Z" agent="5.0 (Windows NT 10.0; Win64; x64) AppleWebKit/537.36 (KHTML, like Gecko) Chrome/109.0.0.0 Safari/537.36" etag="05LYWqbHv5vGY71CvnA4" version="20.8.3" type="github" pages="3">
  <diagram name="ثبت کاربر" id="e7e014a7-5840-1c2e-5031-d8a46d1fe8dd">
    <mxGraphModel dx="794" dy="470" grid="1" gridSize="10" guides="1" tooltips="1" connect="1" arrows="1" fold="1" page="1" pageScale="1" pageWidth="1169" pageHeight="826" background="none" math="0" shadow="0">
      <root>
        <mxCell id="0" />
        <mxCell id="1" parent="0" />
        <mxCell id="3" value="کاربر" style="swimlane;whiteSpace=wrap" parent="1" vertex="1">
          <mxGeometry x="444.5" y="128" width="280" height="570" as="geometry" />
        </mxCell>
        <mxCell id="13" value="" style="ellipse;shape=startState;fillColor=#000000;strokeColor=#ff0000;" parent="3" vertex="1">
          <mxGeometry x="125" y="32" width="30" height="30" as="geometry" />
        </mxCell>
        <mxCell id="oexe1q9IaSBwBI4Qt1IO-45" value="پر کردن اطلاعات" style="rounded=1;whiteSpace=wrap;html=1;" parent="3" vertex="1">
          <mxGeometry x="80.5" y="162" width="120" height="60" as="geometry" />
        </mxCell>
        <mxCell id="oexe1q9IaSBwBI4Qt1IO-46" value="وارد کردن شماره تماس" style="rounded=1;whiteSpace=wrap;html=1;" parent="3" vertex="1">
          <mxGeometry x="80.5" y="242" width="120" height="60" as="geometry" />
        </mxCell>
        <mxCell id="oexe1q9IaSBwBI4Qt1IO-48" value="" style="endArrow=open;strokeColor=#FF0000;endFill=1;rounded=0;exitX=0.511;exitY=1.012;exitDx=0;exitDy=0;exitPerimeter=0;entryX=0.516;entryY=0.019;entryDx=0;entryDy=0;entryPerimeter=0;" parent="3" source="oexe1q9IaSBwBI4Qt1IO-45" target="oexe1q9IaSBwBI4Qt1IO-46" edge="1">
          <mxGeometry relative="1" as="geometry">
            <mxPoint x="140.5" y="292" as="sourcePoint" />
            <mxPoint x="175.5" y="282" as="targetPoint" />
            <Array as="points" />
          </mxGeometry>
        </mxCell>
        <mxCell id="oexe1q9IaSBwBI4Qt1IO-51" value="وارد کردن کد تایید" style="rounded=1;whiteSpace=wrap;html=1;" parent="3" vertex="1">
          <mxGeometry x="80.5" y="322" width="120" height="60" as="geometry" />
        </mxCell>
        <mxCell id="oexe1q9IaSBwBI4Qt1IO-43" value="فشردن گزینه عضویت" style="rounded=1;whiteSpace=wrap;html=1;" parent="3" vertex="1">
          <mxGeometry x="80.5" y="82" width="120" height="60" as="geometry" />
        </mxCell>
        <mxCell id="oexe1q9IaSBwBI4Qt1IO-59" value="" style="endArrow=classic;html=1;rounded=0;entryX=0.502;entryY=-0.025;entryDx=0;entryDy=0;entryPerimeter=0;strokeColor=#FF0000;" parent="3" source="13" target="oexe1q9IaSBwBI4Qt1IO-43" edge="1">
          <mxGeometry width="50" height="50" relative="1" as="geometry">
            <mxPoint x="225.5" y="112" as="sourcePoint" />
            <mxPoint x="275.5" y="62" as="targetPoint" />
          </mxGeometry>
        </mxCell>
        <mxCell id="4" value="سامانه" style="swimlane;whiteSpace=wrap" parent="1" vertex="1">
          <mxGeometry x="724.5" y="128" width="280" height="570" as="geometry" />
        </mxCell>
        <mxCell id="38" value="" style="ellipse;shape=endState;fillColor=#000000;strokeColor=#ff0000" parent="4" vertex="1">
          <mxGeometry x="125" y="522" width="30" height="30" as="geometry" />
        </mxCell>
        <mxCell id="39" value="" style="endArrow=open;strokeColor=#FF0000;endFill=1;rounded=0" parent="4" source="oexe1q9IaSBwBI4Qt1IO-53" target="38" edge="1">
          <mxGeometry relative="1" as="geometry">
            <mxPoint x="140.5" y="472" as="sourcePoint" />
          </mxGeometry>
        </mxCell>
        <mxCell id="oexe1q9IaSBwBI4Qt1IO-44" value="نمایش فرم ثبت نام" style="rounded=1;whiteSpace=wrap;html=1;" parent="4" vertex="1">
          <mxGeometry x="80" y="82" width="120" height="60" as="geometry" />
        </mxCell>
        <mxCell id="21" value="صحت سنجی" style="rhombus;fillColor=#ffffc0;strokeColor=#ff0000;" parent="4" vertex="1">
          <mxGeometry x="100" y="372" width="80" height="40" as="geometry" />
        </mxCell>
        <mxCell id="oexe1q9IaSBwBI4Qt1IO-49" value="ارسال کد تایید&amp;nbsp;" style="rounded=1;whiteSpace=wrap;html=1;" parent="4" vertex="1">
          <mxGeometry x="80" y="242" width="120" height="60" as="geometry" />
        </mxCell>
        <mxCell id="oexe1q9IaSBwBI4Qt1IO-53" value="نمایش صفحه ورود" style="rounded=1;whiteSpace=wrap;html=1;" parent="4" vertex="1">
          <mxGeometry x="80" y="442" width="120" height="60" as="geometry" />
        </mxCell>
        <mxCell id="oexe1q9IaSBwBI4Qt1IO-62" value="" style="endArrow=classic;html=1;rounded=0;exitX=1.021;exitY=0.473;exitDx=0;exitDy=0;entryX=0.508;entryY=-0.05;entryDx=0;entryDy=0;entryPerimeter=0;strokeColor=#FF0000;exitPerimeter=0;edgeStyle=orthogonalEdgeStyle;" parent="4" source="21" target="oexe1q9IaSBwBI4Qt1IO-53" edge="1">
          <mxGeometry width="50" height="50" relative="1" as="geometry">
            <mxPoint x="-44.5" y="422" as="sourcePoint" />
            <mxPoint x="5.5" y="372" as="targetPoint" />
            <Array as="points">
              <mxPoint x="196" y="391" />
              <mxPoint x="196" y="427" />
              <mxPoint x="141" y="427" />
            </Array>
          </mxGeometry>
        </mxCell>
        <mxCell id="NY9R4G8S-dfZ-43ToAio-41" value="تایید" style="edgeLabel;html=1;align=center;verticalAlign=middle;resizable=0;points=[];" parent="oexe1q9IaSBwBI4Qt1IO-62" vertex="1" connectable="0">
          <mxGeometry x="-0.4288" y="1" relative="1" as="geometry">
            <mxPoint x="9" y="2" as="offset" />
          </mxGeometry>
        </mxCell>
        <mxCell id="19" value="" style="endArrow=open;strokeColor=#FF0000;endFill=1;rounded=0;exitX=0.508;exitY=1.02;exitDx=0;exitDy=0;exitPerimeter=0;entryX=0.999;entryY=0.48;entryDx=0;entryDy=0;entryPerimeter=0;" parent="1" source="oexe1q9IaSBwBI4Qt1IO-44" target="oexe1q9IaSBwBI4Qt1IO-45" edge="1">
          <mxGeometry relative="1" as="geometry">
            <mxPoint x="519.16" y="390" as="sourcePoint" />
            <mxPoint x="519.16" y="470" as="targetPoint" />
            <Array as="points">
              <mxPoint x="865" y="319" />
              <mxPoint x="760" y="320" />
            </Array>
          </mxGeometry>
        </mxCell>
        <mxCell id="24" value="" style="endArrow=open;strokeColor=#FF0000;endFill=1;rounded=0;exitX=1.003;exitY=0.653;exitDx=0;exitDy=0;exitPerimeter=0;entryX=0.5;entryY=0;entryDx=0;entryDy=0;" parent="1" source="oexe1q9IaSBwBI4Qt1IO-51" target="21" edge="1">
          <mxGeometry relative="1" as="geometry">
            <mxPoint x="574.5" y="373" as="sourcePoint" />
            <Array as="points">
              <mxPoint x="670" y="490" />
              <mxPoint x="865" y="490" />
            </Array>
          </mxGeometry>
        </mxCell>
        <mxCell id="oexe1q9IaSBwBI4Qt1IO-50" value="" style="endArrow=open;strokeColor=#FF0000;endFill=1;rounded=0;exitX=1.011;exitY=0.445;exitDx=0;exitDy=0;exitPerimeter=0;entryX=-0.002;entryY=0.414;entryDx=0;entryDy=0;entryPerimeter=0;" parent="1" source="oexe1q9IaSBwBI4Qt1IO-46" target="oexe1q9IaSBwBI4Qt1IO-49" edge="1">
          <mxGeometry relative="1" as="geometry">
            <mxPoint x="968.0999999999998" y="433.19999999999993" as="sourcePoint" />
            <mxPoint x="800" y="397" as="targetPoint" />
            <Array as="points" />
          </mxGeometry>
        </mxCell>
        <mxCell id="oexe1q9IaSBwBI4Qt1IO-52" value="" style="endArrow=open;strokeColor=#FF0000;endFill=1;rounded=0;exitX=0.562;exitY=1.005;exitDx=0;exitDy=0;exitPerimeter=0;entryX=1.022;entryY=0.488;entryDx=0;entryDy=0;entryPerimeter=0;" parent="1" source="oexe1q9IaSBwBI4Qt1IO-49" target="oexe1q9IaSBwBI4Qt1IO-51" edge="1">
          <mxGeometry relative="1" as="geometry">
            <mxPoint x="849.9999999999998" y="535.5" as="sourcePoint" />
            <mxPoint x="630" y="580" as="targetPoint" />
            <Array as="points">
              <mxPoint x="872" y="480" />
            </Array>
          </mxGeometry>
        </mxCell>
        <mxCell id="23" value="رد" style="edgeStyle=elbowEdgeStyle;elbow=horizontal;align=left;verticalAlign=top;endArrow=open;endSize=8;strokeColor=#FF0000;endFill=1;rounded=0;entryX=0.004;entryY=0.674;entryDx=0;entryDy=0;entryPerimeter=0;" parent="1" source="21" target="oexe1q9IaSBwBI4Qt1IO-46" edge="1">
          <mxGeometry x="-0.9019" relative="1" as="geometry">
            <mxPoint x="639.5" y="478" as="targetPoint" />
            <Array as="points">
              <mxPoint x="480" y="560" />
              <mxPoint x="690" y="510" />
              <mxPoint x="689.5" y="510" />
              <mxPoint x="709.5" y="500" />
            </Array>
            <mxPoint as="offset" />
          </mxGeometry>
        </mxCell>
        <mxCell id="oexe1q9IaSBwBI4Qt1IO-60" value="" style="endArrow=classic;html=1;rounded=0;exitX=1.008;exitY=0.534;exitDx=0;exitDy=0;exitPerimeter=0;entryX=0.012;entryY=0.506;entryDx=0;entryDy=0;entryPerimeter=0;strokeColor=#FF0000;" parent="1" source="oexe1q9IaSBwBI4Qt1IO-43" target="oexe1q9IaSBwBI4Qt1IO-44" edge="1">
          <mxGeometry width="50" height="50" relative="1" as="geometry">
            <mxPoint x="670" y="240" as="sourcePoint" />
            <mxPoint x="720" y="190" as="targetPoint" />
          </mxGeometry>
        </mxCell>
        <mxCell id="NY9R4G8S-dfZ-43ToAio-42" value="ثبت کاربر" style="text;html=1;align=center;verticalAlign=middle;resizable=0;points=[];autosize=1;strokeColor=none;fillColor=none;" parent="1" vertex="1">
          <mxGeometry x="698" y="85" width="60" height="30" as="geometry" />
        </mxCell>
      </root>
    </mxGraphModel>
  </diagram>
  <diagram id="T3lPVjPOgHdsrZuHSWs9" name="ثبت کسب‌وکار">
    <mxGraphModel dx="936" dy="474" grid="1" gridSize="10" guides="1" tooltips="1" connect="1" arrows="1" fold="1" page="1" pageScale="1" pageWidth="850" pageHeight="1100" math="0" shadow="0">
      <root>
        <mxCell id="0" />
        <mxCell id="1" parent="0" />
        <mxCell id="rc983wYEVPIKFgPmI7Y_-9" value="سامانه" style="swimlane;whiteSpace=wrap" parent="1" vertex="1">
          <mxGeometry x="730" y="80" width="280" height="892" as="geometry" />
        </mxCell>
        <mxCell id="rc983wYEVPIKFgPmI7Y_-12" value="نمایش دسته بندی" style="rounded=1;whiteSpace=wrap;html=1;" parent="rc983wYEVPIKFgPmI7Y_-9" vertex="1">
          <mxGeometry x="80" y="82" width="120" height="60" as="geometry" />
        </mxCell>
        <mxCell id="rc983wYEVPIKFgPmI7Y_-13" value="صحت سنجی&#xa;کد تایید" style="rhombus;fillColor=#ffffc0;strokeColor=#ff0000;" parent="rc983wYEVPIKFgPmI7Y_-9" vertex="1">
          <mxGeometry x="100" y="462" width="80" height="40" as="geometry" />
        </mxCell>
        <mxCell id="rc983wYEVPIKFgPmI7Y_-14" value="ارسال کد تایید&amp;nbsp;" style="rounded=1;whiteSpace=wrap;html=1;" parent="rc983wYEVPIKFgPmI7Y_-9" vertex="1">
          <mxGeometry x="80" y="322" width="120" height="60" as="geometry" />
        </mxCell>
        <mxCell id="rc983wYEVPIKFgPmI7Y_-49" value="نمایش فرم ثبت نام" style="rounded=1;whiteSpace=wrap;html=1;" parent="rc983wYEVPIKFgPmI7Y_-9" vertex="1">
          <mxGeometry x="80" y="202" width="120" height="60" as="geometry" />
        </mxCell>
        <mxCell id="g-lJzcCEVTTedyhrF3Rb-29" value="نمایش مرحله دوم ثبت نام&lt;br&gt;ثبت محل دقیق و مجوز کسب" style="rounded=1;whiteSpace=wrap;html=1;" parent="rc983wYEVPIKFgPmI7Y_-9" vertex="1">
          <mxGeometry x="81.5" y="541" width="120" height="60" as="geometry" />
        </mxCell>
        <mxCell id="g-lJzcCEVTTedyhrF3Rb-36" value="پر کردن اطلاعات ثانویه&lt;br&gt;آپلود مجوز" style="rounded=1;whiteSpace=wrap;html=1;" parent="rc983wYEVPIKFgPmI7Y_-9" vertex="1">
          <mxGeometry x="-198" y="581" width="120" height="60" as="geometry" />
        </mxCell>
        <mxCell id="g-lJzcCEVTTedyhrF3Rb-42" value="رد" style="text;html=1;strokeColor=none;fillColor=none;align=center;verticalAlign=middle;whiteSpace=wrap;rounded=0;" parent="rc983wYEVPIKFgPmI7Y_-9" vertex="1">
          <mxGeometry x="376.5" y="931" width="60" height="30" as="geometry" />
        </mxCell>
        <mxCell id="g-lJzcCEVTTedyhrF3Rb-45" value="" style="endArrow=open;strokeColor=#FF0000;endFill=1;rounded=0;exitX=0.503;exitY=1.009;exitDx=0;exitDy=0;exitPerimeter=0;entryX=1.001;entryY=0.484;entryDx=0;entryDy=0;entryPerimeter=0;" parent="rc983wYEVPIKFgPmI7Y_-9" source="g-lJzcCEVTTedyhrF3Rb-29" target="g-lJzcCEVTTedyhrF3Rb-36" edge="1">
          <mxGeometry relative="1" as="geometry">
            <mxPoint x="162.46000000000004" y="502.20000000000005" as="sourcePoint" />
            <mxPoint x="-58.12000000000012" y="549.8" as="targetPoint" />
            <Array as="points">
              <mxPoint x="141.5" y="610" />
              <mxPoint x="41.5" y="610" />
            </Array>
          </mxGeometry>
        </mxCell>
        <mxCell id="g-lJzcCEVTTedyhrF3Rb-40" value="نمایش پنل کسب‌وکار" style="rounded=1;whiteSpace=wrap;html=1;" parent="rc983wYEVPIKFgPmI7Y_-9" vertex="1">
          <mxGeometry x="90" y="742" width="120" height="60" as="geometry" />
        </mxCell>
        <mxCell id="rc983wYEVPIKFgPmI7Y_-54" value="" style="ellipse;shape=endState;fillColor=#000000;strokeColor=#ff0000" parent="rc983wYEVPIKFgPmI7Y_-9" vertex="1">
          <mxGeometry x="135" y="832" width="30" height="30" as="geometry" />
        </mxCell>
        <mxCell id="g-lJzcCEVTTedyhrF3Rb-59" value="رد" style="edgeStyle=elbowEdgeStyle;elbow=horizontal;align=left;verticalAlign=top;endArrow=open;endSize=8;strokeColor=#FF0000;endFill=1;rounded=0;exitX=0.5;exitY=1;exitDx=0;exitDy=0;entryX=0.5;entryY=0;entryDx=0;entryDy=0;" parent="rc983wYEVPIKFgPmI7Y_-9" source="g-lJzcCEVTTedyhrF3Rb-40" target="rc983wYEVPIKFgPmI7Y_-54" edge="1">
          <mxGeometry x="-1" relative="1" as="geometry">
            <mxPoint x="-179.9999999999999" y="451.9999999999999" as="targetPoint" />
            <Array as="points">
              <mxPoint x="150" y="812" />
              <mxPoint x="-14.5" y="522" />
              <mxPoint x="-15" y="522" />
              <mxPoint x="5" y="512" />
            </Array>
            <mxPoint x="120" y="502" as="sourcePoint" />
          </mxGeometry>
        </mxCell>
        <mxCell id="w8K81hX4EKf41qzMngTm-1" value="ارسال درخواست بررسی مجوز به ادمین" style="rounded=1;whiteSpace=wrap;html=1;" vertex="1" parent="rc983wYEVPIKFgPmI7Y_-9">
          <mxGeometry x="90" y="658" width="120" height="60" as="geometry" />
        </mxCell>
        <mxCell id="rc983wYEVPIKFgPmI7Y_-17" value="" style="endArrow=open;strokeColor=#FF0000;endFill=1;rounded=0;exitX=0.508;exitY=1.02;exitDx=0;exitDy=0;exitPerimeter=0;entryX=0.999;entryY=0.48;entryDx=0;entryDy=0;entryPerimeter=0;" parent="1" source="rc983wYEVPIKFgPmI7Y_-12" edge="1">
          <mxGeometry relative="1" as="geometry">
            <mxPoint x="524.66" y="342" as="sourcePoint" />
            <mxPoint x="650.3799999999999" y="270.79999999999995" as="targetPoint" />
            <Array as="points">
              <mxPoint x="870.5" y="271" />
              <mxPoint x="765.5" y="272" />
            </Array>
          </mxGeometry>
        </mxCell>
        <mxCell id="rc983wYEVPIKFgPmI7Y_-18" value="" style="endArrow=open;strokeColor=#FF0000;endFill=1;rounded=0;exitX=1.024;exitY=0.676;exitDx=0;exitDy=0;exitPerimeter=0;entryX=0.5;entryY=0;entryDx=0;entryDy=0;" parent="1" source="rc983wYEVPIKFgPmI7Y_-44" target="rc983wYEVPIKFgPmI7Y_-13" edge="1">
          <mxGeometry relative="1" as="geometry">
            <mxPoint x="650.8599999999999" y="561.1800000000001" as="sourcePoint" />
            <Array as="points">
              <mxPoint x="690" y="523" />
              <mxPoint x="870" y="523" />
            </Array>
          </mxGeometry>
        </mxCell>
        <mxCell id="rc983wYEVPIKFgPmI7Y_-19" value="" style="endArrow=open;strokeColor=#FF0000;endFill=1;rounded=0;exitX=0.996;exitY=0.45;exitDx=0;exitDy=0;exitPerimeter=0;entryX=-0.002;entryY=0.414;entryDx=0;entryDy=0;entryPerimeter=0;" parent="1" source="rc983wYEVPIKFgPmI7Y_-42" target="rc983wYEVPIKFgPmI7Y_-14" edge="1">
          <mxGeometry relative="1" as="geometry">
            <mxPoint x="651.8199999999999" y="468.70000000000005" as="sourcePoint" />
            <mxPoint x="805.5" y="469" as="targetPoint" />
            <Array as="points" />
          </mxGeometry>
        </mxCell>
        <mxCell id="rc983wYEVPIKFgPmI7Y_-20" value="" style="endArrow=open;strokeColor=#FF0000;endFill=1;rounded=0;exitX=0.562;exitY=1.005;exitDx=0;exitDy=0;exitPerimeter=0;entryX=1.019;entryY=0.471;entryDx=0;entryDy=0;entryPerimeter=0;" parent="1" source="rc983wYEVPIKFgPmI7Y_-14" target="rc983wYEVPIKFgPmI7Y_-44" edge="1">
          <mxGeometry relative="1" as="geometry">
            <mxPoint x="855.4999999999998" y="607.5" as="sourcePoint" />
            <mxPoint x="653.1399999999999" y="551.28" as="targetPoint" />
            <Array as="points">
              <mxPoint x="878" y="512" />
            </Array>
          </mxGeometry>
        </mxCell>
        <mxCell id="rc983wYEVPIKFgPmI7Y_-21" value="رد" style="edgeStyle=elbowEdgeStyle;elbow=horizontal;align=left;verticalAlign=top;endArrow=open;endSize=8;strokeColor=#FF0000;endFill=1;rounded=0;" parent="1" source="rc983wYEVPIKFgPmI7Y_-13" edge="1">
          <mxGeometry x="-1" relative="1" as="geometry">
            <mxPoint x="530" y="512" as="targetPoint" />
            <Array as="points">
              <mxPoint x="485.5" y="632" />
              <mxPoint x="695.5" y="582" />
              <mxPoint x="695" y="582" />
              <mxPoint x="715" y="572" />
            </Array>
          </mxGeometry>
        </mxCell>
        <mxCell id="rc983wYEVPIKFgPmI7Y_-22" value="" style="endArrow=classic;html=1;rounded=0;exitX=1.008;exitY=0.534;exitDx=0;exitDy=0;exitPerimeter=0;entryX=0.01;entryY=0.52;entryDx=0;entryDy=0;entryPerimeter=0;strokeColor=#FF0000;" parent="1" target="rc983wYEVPIKFgPmI7Y_-12" edge="1">
          <mxGeometry width="50" height="50" relative="1" as="geometry">
            <mxPoint x="651.46" y="194.03999999999996" as="sourcePoint" />
            <mxPoint x="725.5" y="142" as="targetPoint" />
          </mxGeometry>
        </mxCell>
        <mxCell id="rc983wYEVPIKFgPmI7Y_-23" value="ادمین" style="swimlane;whiteSpace=wrap" parent="1" vertex="1">
          <mxGeometry x="1010" y="80" width="280" height="892" as="geometry" />
        </mxCell>
        <mxCell id="rc983wYEVPIKFgPmI7Y_-27" value="صحت سنجی&#xa;اطلاعات" style="rhombus;fillColor=#ffffc0;strokeColor=#ff0000;" parent="rc983wYEVPIKFgPmI7Y_-23" vertex="1">
          <mxGeometry x="100" y="552" width="80" height="40" as="geometry" />
        </mxCell>
        <mxCell id="rc983wYEVPIKFgPmI7Y_-28" value="تماس با صاحب کسب‌وکار" style="rounded=1;whiteSpace=wrap;html=1;" parent="rc983wYEVPIKFgPmI7Y_-23" vertex="1">
          <mxGeometry x="80" y="452" width="120" height="60" as="geometry" />
        </mxCell>
        <mxCell id="rc983wYEVPIKFgPmI7Y_-30" value="" style="endArrow=classic;html=1;rounded=0;exitX=1;exitY=0.5;exitDx=0;exitDy=0;entryX=0.5;entryY=0;entryDx=0;entryDy=0;strokeColor=#FF0000;edgeStyle=orthogonalEdgeStyle;" parent="rc983wYEVPIKFgPmI7Y_-23" source="rc983wYEVPIKFgPmI7Y_-27" target="g-lJzcCEVTTedyhrF3Rb-2" edge="1">
          <mxGeometry width="50" height="50" relative="1" as="geometry">
            <mxPoint x="-42" y="742" as="sourcePoint" />
            <mxPoint x="143.46000000000004" y="709" as="targetPoint" />
          </mxGeometry>
        </mxCell>
        <mxCell id="rc983wYEVPIKFgPmI7Y_-39" value="کسب‌وکار" style="swimlane;whiteSpace=wrap;startSize=23;" parent="rc983wYEVPIKFgPmI7Y_-23" vertex="1">
          <mxGeometry x="-560" width="280" height="890" as="geometry" />
        </mxCell>
        <mxCell id="rc983wYEVPIKFgPmI7Y_-40" value="" style="ellipse;shape=startState;fillColor=#000000;strokeColor=#ff0000;" parent="rc983wYEVPIKFgPmI7Y_-39" vertex="1">
          <mxGeometry x="125" y="32" width="30" height="30" as="geometry" />
        </mxCell>
        <mxCell id="rc983wYEVPIKFgPmI7Y_-41" value="پر کردن اطلاعات اولیه" style="rounded=1;whiteSpace=wrap;html=1;" parent="rc983wYEVPIKFgPmI7Y_-39" vertex="1">
          <mxGeometry x="80.5" y="242" width="120" height="60" as="geometry" />
        </mxCell>
        <mxCell id="rc983wYEVPIKFgPmI7Y_-42" value="وارد کردن شماره تماس" style="rounded=1;whiteSpace=wrap;html=1;" parent="rc983wYEVPIKFgPmI7Y_-39" vertex="1">
          <mxGeometry x="80" y="322" width="120" height="60" as="geometry" />
        </mxCell>
        <mxCell id="rc983wYEVPIKFgPmI7Y_-43" value="" style="endArrow=open;strokeColor=#FF0000;endFill=1;rounded=0;exitX=0.511;exitY=1.012;exitDx=0;exitDy=0;exitPerimeter=0;entryX=0.516;entryY=0.019;entryDx=0;entryDy=0;entryPerimeter=0;" parent="rc983wYEVPIKFgPmI7Y_-39" source="rc983wYEVPIKFgPmI7Y_-41" target="rc983wYEVPIKFgPmI7Y_-42" edge="1">
          <mxGeometry relative="1" as="geometry">
            <mxPoint x="140.5" y="412" as="sourcePoint" />
            <mxPoint x="175.5" y="402" as="targetPoint" />
            <Array as="points" />
          </mxGeometry>
        </mxCell>
        <mxCell id="rc983wYEVPIKFgPmI7Y_-44" value="وارد کردن کد تایید" style="rounded=1;whiteSpace=wrap;html=1;" parent="rc983wYEVPIKFgPmI7Y_-39" vertex="1">
          <mxGeometry x="81" y="402" width="120" height="60" as="geometry" />
        </mxCell>
        <mxCell id="rc983wYEVPIKFgPmI7Y_-45" value="فشردن گزینه عضویت" style="rounded=1;whiteSpace=wrap;html=1;" parent="rc983wYEVPIKFgPmI7Y_-39" vertex="1">
          <mxGeometry x="80.5" y="82" width="120" height="60" as="geometry" />
        </mxCell>
        <mxCell id="rc983wYEVPIKFgPmI7Y_-46" value="" style="endArrow=classic;html=1;rounded=0;entryX=0.502;entryY=-0.025;entryDx=0;entryDy=0;entryPerimeter=0;strokeColor=#FF0000;" parent="rc983wYEVPIKFgPmI7Y_-39" source="rc983wYEVPIKFgPmI7Y_-40" target="rc983wYEVPIKFgPmI7Y_-45" edge="1">
          <mxGeometry width="50" height="50" relative="1" as="geometry">
            <mxPoint x="225.5" y="112" as="sourcePoint" />
            <mxPoint x="275.5" y="62" as="targetPoint" />
          </mxGeometry>
        </mxCell>
        <mxCell id="rc983wYEVPIKFgPmI7Y_-48" value="انتخاب دسته بندی" style="rounded=1;whiteSpace=wrap;html=1;" parent="rc983wYEVPIKFgPmI7Y_-39" vertex="1">
          <mxGeometry x="81" y="162" width="120" height="60" as="geometry" />
        </mxCell>
        <mxCell id="rc983wYEVPIKFgPmI7Y_-58" value="پاسخ به سوالات ادمین" style="rounded=1;whiteSpace=wrap;html=1;" parent="rc983wYEVPIKFgPmI7Y_-39" vertex="1">
          <mxGeometry x="80.5" y="493" width="120" height="60" as="geometry" />
        </mxCell>
        <mxCell id="rc983wYEVPIKFgPmI7Y_-62" value="" style="endArrow=classic;html=1;rounded=0;strokeColor=#FF0000;exitX=0.5;exitY=1;exitDx=0;exitDy=0;entryX=0.992;entryY=0.477;entryDx=0;entryDy=0;entryPerimeter=0;" parent="rc983wYEVPIKFgPmI7Y_-23" source="rc983wYEVPIKFgPmI7Y_-28" edge="1">
          <mxGeometry width="50" height="50" relative="1" as="geometry">
            <mxPoint x="140.00000000000023" y="503" as="sourcePoint" />
            <mxPoint x="-360.46000000000004" y="521.62" as="targetPoint" />
            <Array as="points">
              <mxPoint x="140" y="523" />
            </Array>
          </mxGeometry>
        </mxCell>
        <mxCell id="g-lJzcCEVTTedyhrF3Rb-1" value="رد" style="text;html=1;strokeColor=none;fillColor=none;align=center;verticalAlign=middle;whiteSpace=wrap;rounded=0;" parent="rc983wYEVPIKFgPmI7Y_-23" vertex="1">
          <mxGeometry x="170" y="570" width="60" height="30" as="geometry" />
        </mxCell>
        <mxCell id="g-lJzcCEVTTedyhrF3Rb-2" value="" style="shape=sumEllipse;perimeter=ellipsePerimeter;whiteSpace=wrap;html=1;backgroundOutline=1;" parent="rc983wYEVPIKFgPmI7Y_-23" vertex="1">
          <mxGeometry x="125" y="622" width="30" height="28" as="geometry" />
        </mxCell>
        <mxCell id="g-lJzcCEVTTedyhrF3Rb-4" value="" style="endArrow=classic;html=1;rounded=0;exitX=1.001;exitY=0.628;exitDx=0;exitDy=0;entryX=0.5;entryY=0;entryDx=0;entryDy=0;exitPerimeter=0;strokeColor=#FF0000;" parent="rc983wYEVPIKFgPmI7Y_-23" source="rc983wYEVPIKFgPmI7Y_-58" target="rc983wYEVPIKFgPmI7Y_-27" edge="1">
          <mxGeometry width="50" height="50" relative="1" as="geometry">
            <mxPoint x="-190" y="452" as="sourcePoint" />
            <mxPoint x="-140" y="402" as="targetPoint" />
            <Array as="points">
              <mxPoint x="140" y="531" />
            </Array>
          </mxGeometry>
        </mxCell>
        <mxCell id="g-lJzcCEVTTedyhrF3Rb-34" value="صحت سنجی&#xa;اطلاعات" style="rhombus;fillColor=#ffffc0;strokeColor=#ff0000;" parent="rc983wYEVPIKFgPmI7Y_-23" vertex="1">
          <mxGeometry x="100" y="753" width="80" height="40" as="geometry" />
        </mxCell>
        <mxCell id="g-lJzcCEVTTedyhrF3Rb-35" value="بررسی مجوز" style="rounded=1;whiteSpace=wrap;html=1;" parent="rc983wYEVPIKFgPmI7Y_-23" vertex="1">
          <mxGeometry x="80" y="657" width="120" height="60" as="geometry" />
        </mxCell>
        <mxCell id="g-lJzcCEVTTedyhrF3Rb-50" value="" style="endArrow=classic;html=1;rounded=0;strokeColor=#FF0000;exitX=0.5;exitY=1;exitDx=0;exitDy=0;entryX=0.5;entryY=0;entryDx=0;entryDy=0;" parent="rc983wYEVPIKFgPmI7Y_-23" source="g-lJzcCEVTTedyhrF3Rb-35" target="g-lJzcCEVTTedyhrF3Rb-34" edge="1">
          <mxGeometry width="50" height="50" relative="1" as="geometry">
            <mxPoint x="-150" y="622" as="sourcePoint" />
            <mxPoint x="-100" y="572" as="targetPoint" />
          </mxGeometry>
        </mxCell>
        <mxCell id="g-lJzcCEVTTedyhrF3Rb-57" value="" style="shape=sumEllipse;perimeter=ellipsePerimeter;whiteSpace=wrap;html=1;backgroundOutline=1;" parent="rc983wYEVPIKFgPmI7Y_-23" vertex="1">
          <mxGeometry x="125" y="832" width="30" height="28" as="geometry" />
        </mxCell>
        <mxCell id="g-lJzcCEVTTedyhrF3Rb-58" value="رد" style="edgeStyle=orthogonalEdgeStyle;elbow=horizontal;align=left;verticalAlign=top;endArrow=open;endSize=8;strokeColor=#FF0000;endFill=1;rounded=0;exitX=1;exitY=0.5;exitDx=0;exitDy=0;entryX=0.5;entryY=0;entryDx=0;entryDy=0;" parent="rc983wYEVPIKFgPmI7Y_-23" source="g-lJzcCEVTTedyhrF3Rb-34" target="g-lJzcCEVTTedyhrF3Rb-57" edge="1">
          <mxGeometry x="-0.5462" y="10" relative="1" as="geometry">
            <mxPoint x="40" y="812" as="targetPoint" />
            <mxPoint x="-170" y="492" as="sourcePoint" />
            <mxPoint as="offset" />
          </mxGeometry>
        </mxCell>
        <mxCell id="rc983wYEVPIKFgPmI7Y_-63" value="تایید" style="text;html=1;align=center;verticalAlign=middle;resizable=0;points=[];autosize=1;strokeColor=none;fillColor=none;" parent="rc983wYEVPIKFgPmI7Y_-23" vertex="1">
          <mxGeometry x="60" y="547" width="40" height="30" as="geometry" />
        </mxCell>
        <mxCell id="rc983wYEVPIKFgPmI7Y_-50" value="" style="endArrow=classic;html=1;rounded=0;exitX=1.005;exitY=0.714;exitDx=0;exitDy=0;exitPerimeter=0;entryX=0.006;entryY=0.039;entryDx=0;entryDy=0;entryPerimeter=0;strokeColor=#FF0000;" parent="1" source="rc983wYEVPIKFgPmI7Y_-48" target="rc983wYEVPIKFgPmI7Y_-49" edge="1">
          <mxGeometry width="50" height="50" relative="1" as="geometry">
            <mxPoint x="661.46" y="204.03999999999996" as="sourcePoint" />
            <mxPoint x="821.2" y="203.20000000000005" as="targetPoint" />
          </mxGeometry>
        </mxCell>
        <mxCell id="rc983wYEVPIKFgPmI7Y_-53" value="" style="endArrow=open;strokeColor=#FF0000;endFill=1;rounded=0;exitX=0.503;exitY=1.009;exitDx=0;exitDy=0;exitPerimeter=0;entryX=1.001;entryY=0.484;entryDx=0;entryDy=0;entryPerimeter=0;" parent="1" source="rc983wYEVPIKFgPmI7Y_-49" target="rc983wYEVPIKFgPmI7Y_-41" edge="1">
          <mxGeometry relative="1" as="geometry">
            <mxPoint x="890.96" y="243.20000000000005" as="sourcePoint" />
            <mxPoint x="670.3799999999999" y="290.79999999999995" as="targetPoint" />
            <Array as="points">
              <mxPoint x="870" y="351" />
              <mxPoint x="770" y="351" />
            </Array>
          </mxGeometry>
        </mxCell>
        <mxCell id="rc983wYEVPIKFgPmI7Y_-56" value="تایید" style="edgeStyle=elbowEdgeStyle;elbow=horizontal;align=left;verticalAlign=top;endArrow=open;endSize=8;strokeColor=#FF0000;endFill=1;rounded=0;exitX=1;exitY=0.5;exitDx=0;exitDy=0;entryX=-0.009;entryY=0.499;entryDx=0;entryDy=0;entryPerimeter=0;" parent="1" source="rc983wYEVPIKFgPmI7Y_-13" target="rc983wYEVPIKFgPmI7Y_-28" edge="1">
          <mxGeometry x="-1" relative="1" as="geometry">
            <mxPoint x="1070" y="582" as="targetPoint" />
            <Array as="points">
              <mxPoint x="1050" y="572" />
              <mxPoint x="870" y="612" />
              <mxPoint x="870" y="612" />
              <mxPoint x="775.5" y="622" />
              <mxPoint x="775" y="622" />
              <mxPoint x="795" y="612" />
            </Array>
            <mxPoint x="910" y="602" as="sourcePoint" />
          </mxGeometry>
        </mxCell>
        <mxCell id="g-lJzcCEVTTedyhrF3Rb-48" value="" style="endArrow=classic;html=1;rounded=0;strokeColor=#FF0000;exitX=0;exitY=0.5;exitDx=0;exitDy=0;entryX=1;entryY=0.5;entryDx=0;entryDy=0;" parent="1" source="rc983wYEVPIKFgPmI7Y_-27" target="g-lJzcCEVTTedyhrF3Rb-29" edge="1">
          <mxGeometry width="50" height="50" relative="1" as="geometry">
            <mxPoint x="860" y="592" as="sourcePoint" />
            <mxPoint x="910" y="542" as="targetPoint" />
          </mxGeometry>
        </mxCell>
        <mxCell id="g-lJzcCEVTTedyhrF3Rb-30" value="" style="endArrow=open;strokeColor=#FF0000;endFill=1;rounded=0;" parent="1" edge="1">
          <mxGeometry relative="1" as="geometry">
            <mxPoint x="590" y="740" as="sourcePoint" />
            <Array as="points">
              <mxPoint x="590" y="770" />
              <mxPoint x="620" y="770" />
            </Array>
            <mxPoint x="820" y="770" as="targetPoint" />
          </mxGeometry>
        </mxCell>
        <mxCell id="g-lJzcCEVTTedyhrF3Rb-54" value="تایید" style="edgeStyle=elbowEdgeStyle;elbow=horizontal;align=left;verticalAlign=top;endArrow=open;endSize=8;strokeColor=#FF0000;endFill=1;rounded=0;exitX=0;exitY=0.5;exitDx=0;exitDy=0;" parent="1" source="g-lJzcCEVTTedyhrF3Rb-34" edge="1">
          <mxGeometry x="-1" relative="1" as="geometry">
            <mxPoint x="940" y="853" as="targetPoint" />
            <Array as="points">
              <mxPoint x="950" y="902" />
              <mxPoint x="1090" y="922.06" />
              <mxPoint x="910" y="962.06" />
              <mxPoint x="910" y="962.06" />
              <mxPoint x="815.5" y="972.06" />
              <mxPoint x="815" y="972.06" />
              <mxPoint x="835" y="962.06" />
            </Array>
            <mxPoint x="950" y="912.0599999999997" as="sourcePoint" />
          </mxGeometry>
        </mxCell>
        <mxCell id="w8K81hX4EKf41qzMngTm-3" value="" style="endArrow=open;strokeColor=#FF0000;endFill=1;rounded=0;" edge="1" parent="1" source="w8K81hX4EKf41qzMngTm-1" target="g-lJzcCEVTTedyhrF3Rb-35">
          <mxGeometry relative="1" as="geometry">
            <mxPoint x="600" y="732" as="sourcePoint" />
            <mxPoint x="830" y="762" as="targetPoint" />
          </mxGeometry>
        </mxCell>
      </root>
    </mxGraphModel>
  </diagram>
  <diagram id="fwnMYtXdnPiAt0p3MJb-" name="ثبت سرویس">
    <mxGraphModel dx="936" dy="538" grid="1" gridSize="10" guides="1" tooltips="1" connect="1" arrows="1" fold="1" page="1" pageScale="1" pageWidth="850" pageHeight="1100" math="0" shadow="0">
      <root>
        <mxCell id="0" />
        <mxCell id="1" parent="0" />
        <mxCell id="id32n-q3yz8TVrEGBGbN-1" value="کسب‌وکار" style="swimlane;whiteSpace=wrap" parent="1" vertex="1">
          <mxGeometry x="140" y="160" width="280" height="560" as="geometry" />
        </mxCell>
        <mxCell id="id32n-q3yz8TVrEGBGbN-2" value="" style="ellipse;shape=startState;fillColor=#000000;strokeColor=#ff0000;" parent="id32n-q3yz8TVrEGBGbN-1" vertex="1">
          <mxGeometry x="125" y="32" width="30" height="30" as="geometry" />
        </mxCell>
        <mxCell id="id32n-q3yz8TVrEGBGbN-3" value="پر کردن اطلاعات" style="rounded=1;whiteSpace=wrap;html=1;" parent="id32n-q3yz8TVrEGBGbN-1" vertex="1">
          <mxGeometry x="80.5" y="280" width="120" height="60" as="geometry" />
        </mxCell>
        <mxCell id="id32n-q3yz8TVrEGBGbN-7" value="ورود به پنل کسب‌وکار" style="rounded=1;whiteSpace=wrap;html=1;" parent="id32n-q3yz8TVrEGBGbN-1" vertex="1">
          <mxGeometry x="80" y="99" width="120" height="60" as="geometry" />
        </mxCell>
        <mxCell id="id32n-q3yz8TVrEGBGbN-8" value="" style="endArrow=classic;html=1;rounded=0;entryX=0.502;entryY=-0.025;entryDx=0;entryDy=0;entryPerimeter=0;strokeColor=#FF0000;" parent="id32n-q3yz8TVrEGBGbN-1" source="id32n-q3yz8TVrEGBGbN-2" target="id32n-q3yz8TVrEGBGbN-7" edge="1">
          <mxGeometry width="50" height="50" relative="1" as="geometry">
            <mxPoint x="225.5" y="112" as="sourcePoint" />
            <mxPoint x="275.5" y="62" as="targetPoint" />
          </mxGeometry>
        </mxCell>
        <mxCell id="id32n-q3yz8TVrEGBGbN-23" value="انتخاب گزینه ثبت سرویس" style="rounded=1;whiteSpace=wrap;html=1;" parent="id32n-q3yz8TVrEGBGbN-1" vertex="1">
          <mxGeometry x="80" y="201" width="120" height="60" as="geometry" />
        </mxCell>
        <mxCell id="id32n-q3yz8TVrEGBGbN-24" value="" style="endArrow=classic;html=1;rounded=0;strokeColor=#FF0000;exitX=0.5;exitY=1;exitDx=0;exitDy=0;" parent="id32n-q3yz8TVrEGBGbN-1" source="id32n-q3yz8TVrEGBGbN-7" target="id32n-q3yz8TVrEGBGbN-23" edge="1">
          <mxGeometry width="50" height="50" relative="1" as="geometry">
            <mxPoint x="260" y="250" as="sourcePoint" />
            <mxPoint x="310" y="200" as="targetPoint" />
          </mxGeometry>
        </mxCell>
        <mxCell id="id32n-q3yz8TVrEGBGbN-9" value="سامانه" style="swimlane;whiteSpace=wrap" parent="1" vertex="1">
          <mxGeometry x="420" y="160" width="280" height="560" as="geometry" />
        </mxCell>
        <mxCell id="id32n-q3yz8TVrEGBGbN-10" value="" style="ellipse;shape=endState;fillColor=#000000;strokeColor=#ff0000" parent="id32n-q3yz8TVrEGBGbN-9" vertex="1">
          <mxGeometry x="125" y="520" width="30" height="30" as="geometry" />
        </mxCell>
        <mxCell id="id32n-q3yz8TVrEGBGbN-11" value="" style="endArrow=open;strokeColor=#FF0000;endFill=1;rounded=0" parent="id32n-q3yz8TVrEGBGbN-9" source="id32n-q3yz8TVrEGBGbN-15" target="id32n-q3yz8TVrEGBGbN-10" edge="1">
          <mxGeometry relative="1" as="geometry">
            <mxPoint x="140.5" y="470" as="sourcePoint" />
          </mxGeometry>
        </mxCell>
        <mxCell id="id32n-q3yz8TVrEGBGbN-12" value="نمایش فرم ثبت سرویس" style="rounded=1;whiteSpace=wrap;html=1;" parent="id32n-q3yz8TVrEGBGbN-9" vertex="1">
          <mxGeometry x="80" y="200" width="120" height="60" as="geometry" />
        </mxCell>
        <mxCell id="id32n-q3yz8TVrEGBGbN-13" value="صحت سنجی&#xa;وارد شدن موارد ضروری" style="rhombus;fillColor=#ffffc0;strokeColor=#ff0000;" parent="id32n-q3yz8TVrEGBGbN-9" vertex="1">
          <mxGeometry x="70" y="350" width="140" height="60" as="geometry" />
        </mxCell>
        <mxCell id="id32n-q3yz8TVrEGBGbN-15" value="نمایش پنل کسب‌وکار" style="rounded=1;whiteSpace=wrap;html=1;" parent="id32n-q3yz8TVrEGBGbN-9" vertex="1">
          <mxGeometry x="79" y="440" width="120" height="60" as="geometry" />
        </mxCell>
        <mxCell id="id32n-q3yz8TVrEGBGbN-16" value="" style="endArrow=classic;html=1;rounded=0;exitX=1;exitY=0.5;exitDx=0;exitDy=0;entryX=0.508;entryY=-0.05;entryDx=0;entryDy=0;entryPerimeter=0;strokeColor=#FF0000;edgeStyle=orthogonalEdgeStyle;" parent="id32n-q3yz8TVrEGBGbN-9" source="id32n-q3yz8TVrEGBGbN-13" target="id32n-q3yz8TVrEGBGbN-15" edge="1">
          <mxGeometry width="50" height="50" relative="1" as="geometry">
            <mxPoint x="-44.5" y="420" as="sourcePoint" />
            <mxPoint x="5.5" y="370" as="targetPoint" />
          </mxGeometry>
        </mxCell>
        <mxCell id="id32n-q3yz8TVrEGBGbN-27" value="تایید" style="text;html=1;strokeColor=none;fillColor=none;align=center;verticalAlign=middle;whiteSpace=wrap;rounded=0;" parent="id32n-q3yz8TVrEGBGbN-9" vertex="1">
          <mxGeometry x="210" y="390" width="60" height="30" as="geometry" />
        </mxCell>
        <mxCell id="id32n-q3yz8TVrEGBGbN-17" value="" style="endArrow=open;strokeColor=#FF0000;endFill=1;rounded=0;exitX=0.508;exitY=1.02;exitDx=0;exitDy=0;exitPerimeter=0;entryX=0.999;entryY=0.48;entryDx=0;entryDy=0;entryPerimeter=0;" parent="1" source="id32n-q3yz8TVrEGBGbN-12" target="id32n-q3yz8TVrEGBGbN-3" edge="1">
          <mxGeometry relative="1" as="geometry">
            <mxPoint x="214.65999999999997" y="540" as="sourcePoint" />
            <mxPoint x="214.65999999999997" y="620" as="targetPoint" />
            <Array as="points">
              <mxPoint x="560.5" y="469" />
              <mxPoint x="455.5" y="470" />
            </Array>
          </mxGeometry>
        </mxCell>
        <mxCell id="id32n-q3yz8TVrEGBGbN-21" value="رد" style="edgeStyle=elbowEdgeStyle;elbow=horizontal;align=left;verticalAlign=top;endArrow=open;endSize=8;strokeColor=#FF0000;endFill=1;rounded=0;entryX=0;entryY=0.5;entryDx=0;entryDy=0;" parent="1" source="id32n-q3yz8TVrEGBGbN-13" target="id32n-q3yz8TVrEGBGbN-3" edge="1">
          <mxGeometry x="-0.9232" y="-20" relative="1" as="geometry">
            <mxPoint x="220.9799999999998" y="560.4400000000002" as="targetPoint" />
            <Array as="points">
              <mxPoint x="200" y="490" />
              <mxPoint x="210" y="470" />
              <mxPoint x="200" y="480" />
              <mxPoint x="175.5" y="710" />
              <mxPoint x="385.5" y="660" />
              <mxPoint x="385" y="660" />
              <mxPoint x="405" y="650" />
            </Array>
            <mxPoint as="offset" />
          </mxGeometry>
        </mxCell>
        <mxCell id="id32n-q3yz8TVrEGBGbN-25" value="" style="endArrow=classic;html=1;rounded=0;strokeColor=#FF0000;exitX=1;exitY=0.5;exitDx=0;exitDy=0;entryX=0;entryY=0.5;entryDx=0;entryDy=0;" parent="1" source="id32n-q3yz8TVrEGBGbN-23" target="id32n-q3yz8TVrEGBGbN-12" edge="1">
          <mxGeometry width="50" height="50" relative="1" as="geometry">
            <mxPoint x="400" y="410" as="sourcePoint" />
            <mxPoint x="450" y="360" as="targetPoint" />
          </mxGeometry>
        </mxCell>
        <mxCell id="id32n-q3yz8TVrEGBGbN-26" style="edgeStyle=orthogonalEdgeStyle;rounded=0;orthogonalLoop=1;jettySize=auto;html=1;entryX=0.5;entryY=0;entryDx=0;entryDy=0;strokeColor=#FF0000;" parent="1" source="id32n-q3yz8TVrEGBGbN-3" target="id32n-q3yz8TVrEGBGbN-13" edge="1">
          <mxGeometry relative="1" as="geometry">
            <Array as="points">
              <mxPoint x="560" y="480" />
            </Array>
          </mxGeometry>
        </mxCell>
      </root>
    </mxGraphModel>
  </diagram>
</mxfile>
